<svg width="20" height="20" viewBox="0 0 20 20" fill="none" xmlns="http://www.w3.org/2000/svg">
<g clip-path="url(#clip0_37_63)">
<path d="M14.6772 12.93C15.8875 11.2784 16.4296 9.23062 16.195 7.19644C15.9604 5.16226 14.9664 3.29168 13.4119 1.95892C11.8573 0.626155 9.85684 -0.070492 7.8107 0.00834944C5.76456 0.0871909 3.82364 0.935706 2.37624 2.38414C0.928847 3.83257 0.0817206 5.7741 0.00434332 7.8203C-0.0730339 9.86649 0.625044 11.8665 1.95892 13.4201C3.29279 14.9737 5.16409 15.9663 7.19843 16.1995C9.23277 16.4326 11.2801 15.8891 12.9309 14.6775H12.9297C12.9663 14.7275 13.0072 14.7754 13.0522 14.8213L17.8647 19.6338C18.099 19.8683 18.417 20.0001 18.7486 20.0003C19.0802 20.0004 19.3982 19.8688 19.6328 19.6344C19.8673 19.4 19.9992 19.082 19.9993 18.7504C19.9994 18.4189 19.8678 18.1008 19.6334 17.8663L14.8209 13.0538C14.7762 13.0085 14.7282 12.968 14.6772 12.93ZM14.9997 8.125C14.9997 9.02784 14.8218 9.92184 14.4763 10.756C14.1308 11.5901 13.6244 12.348 12.986 12.9864C12.3476 13.6248 11.5897 14.1312 10.7556 14.4767C9.92149 14.8222 9.02749 15 8.12466 15C7.22182 15 6.32782 14.8222 5.49371 14.4767C4.65959 14.1312 3.9017 13.6248 3.2633 12.9864C2.62489 12.348 2.11849 11.5901 1.77299 10.756C1.42748 9.92184 1.24966 9.02784 1.24966 8.125C1.24966 6.30164 1.97399 4.55296 3.2633 3.26364C4.55261 1.97433 6.30129 1.25 8.12466 1.25C9.94802 1.25 11.6967 1.97433 12.986 3.26364C14.2753 4.55296 14.9997 6.30164 14.9997 8.125Z" fill="#ACACAC"/>
</g>
<defs>
<clipPath id="clip0_37_63">
<rect width="20" height="20" fill="white"/>
</clipPath>
</defs>
</svg>
